<svg fill="none" height="24" viewBox="0 0 16 24" width="16" xmlns="http://www.w3.org/2000/svg" xmlns:xlink="http://www.w3.org/1999/xlink"><clipPath id="a"><path d="m0 0h15.8272v24h-15.8272z"/></clipPath><g clip-path="url(#a)" fill="#000"><path d="m7.91428 24-7.91428-12 7.91428-12 7.91362 12zm-6.17223-12 6.17156 9.3582 6.17089-9.3582-6.17022-9.35816z"/><path d="m6.29719 10.3151c.55974 0 1.0135-.45378 1.0135-1.01352s-.45376-1.01349-1.0135-1.01349-1.0135.45375-1.0135 1.01349.45376 1.01352 1.0135 1.01352z"/><path d="m9.5301 10.3151c.5597 0 1.0135-.45378 1.0135-1.01352s-.4538-1.01349-1.0135-1.01349c-.55974 0-1.0135.45375-1.0135 1.01349s.45376 1.01352 1.0135 1.01352z"/><path d="m7.91361 14.8587c-1.41149 0-2.56052-1.1484-2.56052-2.5599h1.45446c0 .6096.49584 1.1054 1.10606 1.1054.61021 0 1.10605-.4958 1.10605-1.1054h1.45444c0 1.4115-1.14834 2.5599-2.56049 2.5599z"/></g></svg>