<?xml version="1.0" encoding="utf-8"?>
<!-- Generator: Adobe Illustrator 25.3.1, SVG Export Plug-In . SVG Version: 6.00 Build 0)  -->
<svg version="1.1" id="Layer_1" xmlns="http://www.w3.org/2000/svg" xmlns:xlink="http://www.w3.org/1999/xlink" x="0px" y="0px"
	 viewBox="0 0 48 48" style="enable-background:new 0 0 48 48;" xml:space="preserve">
<style type="text/css">
	.st0{fill:#C9DB17;}
</style>
<path class="st0" d="M43.3,17.8l-1.6-0.9l0.6-1.7c1.6-5.3-3.6-10.2-9.1-8.6l-1.9,0.6l-0.9-1.6C28,1.8,23.3,0.9,19.7,3.4
	c-0.9,0.6-1.6,1.4-2.1,2.2l-0.9,1.6l-1.8-0.5C9.4,5.1,4.2,10,5.9,15.3L6.5,17L4.8,18c-3.3,1.4-4.6,5.3-3.3,8.8
	c0.6,1.6,1.8,2.8,3.3,3.5L6.5,31l-0.6,1.7c-1.6,5.3,3.6,10.2,9.1,8.6l1.8-0.5l0.9,1.6c2.4,3.8,7.1,4.7,10.7,2.2
	c0.9-0.6,1.6-1.4,2.1-2.2l0.9-1.6l1.8,0.5c5.5,1.6,10.7-3.3,9.1-8.6L41.5,31l1.6-0.8c3.3-1.4,4.6-5.3,3.3-8.8
	C45.8,19.8,44.8,18.6,43.3,17.8z"/>
</svg>
