<?xml version="1.0" encoding="utf-8"?>
<!-- Generator: Adobe Illustrator 25.3.1, SVG Export Plug-In . SVG Version: 6.00 Build 0)  -->
<svg version="1.1" id="Layer_1" xmlns="http://www.w3.org/2000/svg" xmlns:xlink="http://www.w3.org/1999/xlink" x="0px" y="0px"
	 viewBox="0 0 136 90" style="enable-background:new 0 0 136 90;" xml:space="preserve">
<style type="text/css">
	.st0{fill:#FFFFFF;}
</style>
<path d="M114.6,63.4c-6.1,0-12.3,0-18.4,0c-0.3,0-0.7,0-1,0c-1.1-0.1-1.9-0.8-2-2c0-0.3,0-0.6,0-0.9c0-12.4,0-24.8,0-37.2
	c0-0.3,0-0.5,0-0.8c0.1-1.1,0.8-1.8,1.9-2c0.4-0.1,0.7,0,1.1,0c12.3,0,24.7,0,37,0c0.2,0,0.4,0,0.6,0c1.5,0.1,2.3,0.8,2.4,2.3
	c0,0.3,0,0.6,0,0.9c0,12.2,0,24.4,0,36.6c0,0.4,0,0.9-0.1,1.3c-0.2,1-0.9,1.7-1.9,1.7c-0.3,0-0.7,0-1,0
	C127,63.4,120.8,63.4,114.6,63.4z"/>
<path d="M90.1,42c0,12.7-10.3,22.8-23,22.8c-12.6,0-22.8-10.3-22.7-23c0.1-12.6,10.4-22.7,23-22.7C80,19.1,90.2,29.4,90.1,42z"/>
<path d="M24.3,63.3c-7.4,0-14.9,0-22.3,0c-0.3,0-0.6,0-0.9,0c-1-0.1-1.4-0.8-1-1.7c0.1-0.2,0.2-0.4,0.3-0.6C8,48,15.5,35,23,22
	c0.2-0.3,0.3-0.6,0.5-0.8c0.5-0.6,1.2-0.6,1.7,0c0.2,0.2,0.3,0.4,0.4,0.7c7.5,13,15.1,26,22.6,39.1c0.1,0.3,0.3,0.5,0.4,0.8
	c0.3,0.7,0,1.4-0.8,1.5c-0.3,0.1-0.7,0-1,0C39.4,63.3,31.9,63.3,24.3,63.3z"/>
</svg>
