<?xml version="1.0" encoding="utf-8"?>
<!-- Generator: Adobe Illustrator 25.3.1, SVG Export Plug-In . SVG Version: 6.00 Build 0)  -->
<svg version="1.1" id="Layer_1" xmlns="http://www.w3.org/2000/svg" xmlns:xlink="http://www.w3.org/1999/xlink" x="0px" y="0px"
	 viewBox="0 0 187.3 33.5" style="enable-background:new 0 0 187.3 33.5;" xml:space="preserve">
<style type="text/css">
	.st0{fill:#C9DB17;}
	.st1{enable-background:new    ;}
</style>
<path class="st0" d="M179.8,12.8l-1.1-0.6l0.4-1.1c1.1-3.4-2.4-6.5-6.1-5.5L171.7,6l-0.6-1c-1.6-2.4-4.8-3-7.2-1.4
	c-0.6,0.4-1.1,0.9-1.4,1.4l-0.6,1l-1.2-0.3c-3.7-1-7.2,2.1-6.1,5.5l0.4,1.1l-1.1,0.6c-2.2,0.9-3.1,3.4-2.2,5.6
	c0.4,1,1.2,1.8,2.2,2.2l1.1,0.5l-0.4,1.1c-1.1,3.4,2.4,6.5,6.1,5.5l1.2-0.3l0.6,1c1.6,2.4,4.8,3,7.2,1.4c0.6-0.4,1.1-0.9,1.4-1.4
	l0.6-1l1.2,0.3c3.7,1,7.2-2.1,6.1-5.5l-0.4-1.1l1.1-0.5c2.2-0.9,3.1-3.4,2.2-5.6C181.5,14.1,180.8,13.3,179.8,12.8z"/>
<g class="st1">
	<path d="M17,20.5h-4.6v6.7c0,1.4-0.5,2.1-1.6,2.1s-1.6-0.7-1.6-2.1V7.7c0-1.4,0.7-2.1,2.1-2.1H17c0.6,0,1.2,0,1.9,0.1
		c0.7,0.1,1.5,0.3,2.2,0.5C22,6.6,22.7,7,23.3,7.5s1.1,1.2,1.5,2.1c0.4,0.9,0.6,2,0.6,3.4c0,1.3-0.2,2.5-0.6,3.4
		c-0.4,0.9-0.9,1.6-1.5,2.2c-0.6,0.6-1.3,1-2.1,1.3c-0.8,0.3-1.5,0.5-2.2,0.6C18.3,20.5,17.6,20.5,17,20.5z M12.4,8.2v9.9h4.2
		c0.5,0,1.1-0.1,1.7-0.2s1.2-0.3,1.8-0.7s1.1-0.8,1.4-1.5c0.4-0.7,0.6-1.6,0.6-2.7c0-1.2-0.2-2.1-0.6-2.7c-0.4-0.7-0.8-1.1-1.4-1.4
		S19,8.3,18.3,8.3c-0.6-0.1-1.2-0.1-1.7-0.1H12.4z"/>
	<path d="M38.7,29.2c-0.6,0-1.1-0.1-1.4-0.3s-0.5-0.5-0.5-0.9c0-0.8,0.6-1.2,1.9-1.2h4.1V9c-0.6,0.6-1.3,1-2.1,1.3
		c-0.8,0.3-1.7,0.4-2.5,0.4c-0.2,0-0.5,0-0.7-0.1s-0.4-0.2-0.6-0.4c-0.1-0.2-0.2-0.4-0.2-0.7c0-0.3,0.1-0.6,0.2-0.7s0.3-0.3,0.6-0.4
		c0.2-0.1,0.5-0.1,0.7-0.1c1,0,1.9-0.2,2.6-0.6c0.8-0.4,1.4-0.8,1.8-1.4C43,6,43.2,5.8,43.5,5.7c0.3-0.1,0.6-0.2,0.9-0.2
		c0.6,0,1,0.2,1.2,0.5s0.3,0.9,0.3,1.6v19.1h4c1.2,0,1.9,0.4,1.9,1.2c0,0.4-0.2,0.7-0.5,0.9s-0.8,0.3-1.4,0.3H38.7z"/>
	<path d="M72.8,29.6c-1.7,0-3.2-0.4-4.6-1.1c-1.4-0.7-2.5-1.8-3.3-3.4s-1.2-3.5-1.2-6V7.7c0-1.4,0.5-2.1,1.6-2.1
		c1.1,0,1.6,0.7,1.6,2.1v11.2c0,2.7,0.5,4.7,1.6,6.1s2.5,2.1,4.3,2.1c1.8,0,3.3-0.7,4.3-2.1c1-1.4,1.5-3.4,1.5-6.1V7.7
		c0-1.4,0.5-2.1,1.6-2.1c1.1,0,1.6,0.7,1.6,2.1v11.4c0,2.5-0.4,4.5-1.2,6c-0.8,1.5-1.9,2.7-3.2,3.4C76.1,29.2,74.5,29.6,72.8,29.6z"
		/>
	<path d="M94.4,25.7c0-0.4,0.1-0.7,0.4-0.9c0.3-0.2,0.6-0.4,0.9-0.4c0.3,0,0.6,0.1,0.8,0.2c0.3,0.2,0.5,0.4,0.8,0.6
		c0.5,0.6,1.1,1,1.9,1.4s1.7,0.6,2.7,0.6c0.9,0,1.7-0.2,2.5-0.5c0.8-0.3,1.4-0.8,1.9-1.5c0.5-0.7,0.7-1.5,0.7-2.5
		c0-0.9-0.3-1.7-0.9-2.3c-0.6-0.6-1.3-1.1-2.2-1.4c-0.9-0.3-1.9-0.5-2.9-0.5c-0.4,0-0.7-0.2-1-0.4c-0.3-0.2-0.4-0.5-0.4-0.9
		c0-0.4,0.1-0.7,0.4-0.9c0.3-0.2,0.6-0.3,1-0.3c1,0,2-0.2,2.8-0.5c0.8-0.3,1.5-0.8,2-1.5c0.5-0.6,0.7-1.4,0.7-2.3
		c0-0.9-0.2-1.6-0.7-2.2c-0.5-0.6-1-1-1.7-1.3c-0.7-0.3-1.5-0.4-2.2-0.4c-0.8,0-1.6,0.2-2.4,0.6S98,9.2,97.5,9.8
		c-0.3,0.3-0.6,0.5-0.8,0.7c-0.2,0.2-0.5,0.2-0.8,0.2c-0.4,0-0.6-0.1-0.9-0.4s-0.4-0.5-0.4-0.9c0-0.5,0.3-1,0.8-1.4
		C96.1,7.3,97,6.7,98,6.2c1.1-0.5,2.3-0.8,3.8-0.8c1.3,0,2.6,0.2,3.7,0.6c1.2,0.4,2.1,1.1,2.9,1.9c0.8,0.9,1.1,2,1.1,3.4
		c0,1.1-0.2,2-0.7,2.8c-0.5,0.8-1.1,1.5-1.9,1.9s-1.6,0.8-2.5,1c0.9,0.2,1.8,0.5,2.7,1c0.8,0.4,1.5,1,2.1,1.8
		c0.5,0.8,0.8,1.7,0.8,2.9c0,1.4-0.4,2.7-1.1,3.7c-0.7,1-1.7,1.8-3,2.3c-1.2,0.5-2.6,0.8-4.1,0.8s-2.8-0.2-3.9-0.7
		c-1.1-0.5-2.1-1.1-2.8-1.8c-0.3-0.2-0.5-0.5-0.6-0.7C94.5,26.1,94.4,25.9,94.4,25.7z"/>
	<path d="M124.1,29.4c-0.5,0-0.8-0.1-1.1-0.4c-0.3-0.3-0.4-0.7-0.4-1.3c0-0.2,0-0.7,0-1.5c0-0.8,0-1.7,0-2.8s0-2.4,0-3.7
		s0-2.6,0-3.9c0-1.3,0-2.5,0-3.7s0-2.1,0-2.9s0-1.3,0-1.5c0-0.5,0.1-1,0.3-1.3s0.5-0.6,0.8-0.8s0.7-0.3,1.1-0.3h0.1
		c0.6,0,1.1,0.2,1.6,0.6c0.4,0.4,0.8,0.9,1,1.5l5.5,12.5l5.5-12.5c0.3-0.6,0.6-1.1,1-1.5c0.4-0.4,0.9-0.6,1.6-0.6h0.1
		c0.4,0,0.8,0.1,1.1,0.3s0.6,0.5,0.8,0.8s0.3,0.8,0.3,1.3c0,0.2,0,0.7,0,1.5s0,1.7,0,2.9s0,2.4,0,3.7c0,1.3,0,2.6,0,3.9s0,2.5,0,3.7
		s0,2.1,0,2.8c0,0.8,0,1.3,0,1.5c0,0.6-0.1,1-0.4,1.3c-0.3,0.3-0.6,0.4-1.1,0.4c-1.1,0-1.7-0.7-1.7-2V11.2l-5.4,12
		c-0.3,0.6-0.5,1-0.8,1.3c-0.2,0.3-0.6,0.5-1.1,0.5c-0.5,0-0.9-0.2-1.1-0.5c-0.2-0.3-0.5-0.8-0.8-1.3l-5.5-12.2v16.4
		c0,0.7-0.1,1.1-0.4,1.5C125,29.2,124.6,29.4,124.1,29.4z"/>
</g>
</svg>
